<svg width="160" height="160" viewBox="0 0 160 160" fill="none"
    xmlns="http://www.w3.org/2000/svg">
    <path d="M160 0H0V160H160V0Z" fill="#004845"/>
    <path d="M43.7055 93.472L34.863 108.38L25.8838 93.472H21.2911V117.955H26.5002V103.377L33.5259 114.926H36.0284L43.0878 103.068L43.1222 117.955H48.3319L48.2632 93.472H43.7055Z" fill="white"/>
    <path d="M133.705 115.659V117.955H138.709V107.433C138.709 101.847 135.453 99.2419 129.833 99.2419C126.885 99.2419 123.903 100.03 121.881 101.47L123.801 105.205C125.137 104.143 127.159 103.492 129.113 103.492C131.992 103.492 133.363 104.828 133.363 107.125H129.113C123.492 107.125 121.196 109.387 121.196 112.642C121.196 115.83 123.766 118.228 128.085 118.228C130.792 118.229 132.711 117.338 133.705 115.659ZM129.421 114.631C127.536 114.631 126.405 113.739 126.405 112.403C126.405 111.169 127.194 110.244 129.695 110.244H133.363V112.129C132.745 113.807 131.204 114.631 129.421 114.631Z" fill="white"/>
    <path d="M100.897 99.5168H95.551V117.955H100.897V99.5168Z" fill="white"/>
    <path d="M100.897 93.472H95.551V98.1124H100.897V93.472Z" fill="white"/>
    <path d="M114.075 107.331L121.751 99.5168H115.377L107.563 106.919V93.472H102.216V117.955H107.563V113.259L110.133 110.724L115.959 117.955H122.437L114.075 107.331Z" fill="white"/>
    <path d="M76.993 93.472H71.6466V99.5168H69.081V104.156H71.6466V111.614C71.6466 116.001 74.1827 118.228 78.5356 118.228C79.5649 118.228 80.5802 118.081 81.4644 117.777V113.336L81.4483 113.293C80.8656 113.739 80.0775 113.979 79.2894 113.979C77.8499 113.979 76.993 113.122 76.993 111.546V104.156H81.4644V99.5175H76.993V93.472Z" fill="white"/>
    <path d="M87.8921 101.95V99.5168H82.7861V117.955H88.1326V109.25C88.1326 105.719 90.086 104.109 93.0338 104.109C93.4447 104.109 93.7882 104.143 94.2335 104.178V99.2426C91.3874 99.2426 89.1942 100.167 87.8921 101.95Z" fill="white"/>
    <path d="M64.6096 93.472H53.874V98.1131H64.6096V93.472Z" fill="white"/>
    <path d="M59.362 99.2426C53.7414 99.2426 49.526 103.218 49.526 108.736C49.526 114.219 53.6734 118.229 60.0478 118.229C63.3671 118.229 65.9341 117.204 67.6478 115.256L64.6741 112.282C63.4415 113.397 62.0686 113.945 60.1852 113.945C57.3749 113.945 55.4214 112.54 54.9075 110.243H68.8552C68.9331 109.762 68.9583 109.215 68.9583 108.804C68.9583 102.875 64.7765 99.2426 59.362 99.2426ZM54.8381 107.125C55.2146 104.759 56.9626 103.286 59.3957 103.286C61.7944 103.286 63.5424 104.794 63.9197 107.125H54.8381Z" fill="white"/>
    <path d="M95.4746 143.217H96.9372V137.21H103.003V135.864H96.9372V130.91H103.725V129.564H95.4746V143.217Z" fill="white"/>
    <path d="M108.34 129.564H106.878V143.217H114.679V141.872H108.34V129.564Z" fill="white"/>
    <path d="M118.841 136.995H125.004V135.669H118.841V130.91H125.706V129.564H117.378V143.217H125.804V141.872H118.841V136.995Z" fill="white"/>
    <path d="M134.301 136.196L138.494 129.564H136.856L133.423 135.123L130.03 129.564H128.333L132.546 136.235L128.138 143.217H129.776L133.404 137.327L137.032 143.217H138.709L134.301 136.196Z" fill="white"/>
</svg>
